<?xml version="1.0" encoding="UTF-8"?>
<svg version="1.1" xmlns="http://www.w3.org/2000/svg" width="614" height="464">
<path d="M0 0 C4.38218338 0.01732129 8.76382455 0.00706507 13.14598942 -0.01071739 C16.5509401 -0.0215479 19.95576134 -0.01811626 23.36071587 -0.01033401 C24.9782054 -0.00834185 26.5957069 -0.01075651 28.21318245 -0.01777267 C30.45884825 -0.02540072 32.70361963 -0.01377562 34.94921875 0.00292969 C36.22189102 0.00531647 37.49456329 0.00770325 38.80580139 0.01016235 C44.24482243 0.63080305 47.60337215 3.34435333 51.14428711 7.39111328 C52.03413961 10.06067077 52.27622117 11.66909111 52.32006836 14.41064453 C52.34391602 15.18601563 52.36776367 15.96138672 52.39233398 16.76025391 C52.43498673 18.37718084 52.46640795 19.99444668 52.48608398 21.61181641 C52.67717983 26.98472042 53.62011985 30.10082271 57.14428711 34.39111328 C59.90747741 36.66087674 61.41412227 36.38683018 65.08178711 36.32861328 C69.38420138 35.66238122 71.44267052 33.8295344 74.14428711 30.39111328 C75.03413961 27.72155579 75.27622117 26.11313545 75.32006836 23.37158203 C75.34391602 22.59621094 75.36776367 21.82083984 75.39233398 21.02197266 C75.43498673 19.40504572 75.46640795 17.78777988 75.48608398 16.17041016 C75.67645902 10.81777254 76.50801437 7.57814678 80.14428711 3.39111328 C84.90542885 -0.56084714 89.92806965 -0.02854384 95.81030273 0.01016235 C96.89727196 0.00548238 97.98424118 0.00080241 99.10414886 -0.00401938 C102.75306839 -0.01600285 106.40161467 -0.00649876 110.05053711 0.00292969 C112.66382059 -0.00113451 115.27710236 -0.00647553 117.89038086 -0.01300049 C124.25552619 -0.02634307 130.62056542 -0.02345778 136.98571491 -0.01476257 C142.15861698 -0.00798848 147.3314893 -0.0070681 152.50439453 -0.01033401 C153.60858207 -0.01102356 153.60858207 -0.01102356 154.73507643 -0.01172704 C156.23048211 -0.01268621 157.72588778 -0.01365885 159.22129345 -0.01464482 C173.24500554 -0.02320025 187.26865881 -0.01336219 201.29236126 0.00275628 C213.326366 0.01615961 225.36028393 0.01383156 237.39428711 0 C251.36768269 -0.01605312 265.34102672 -0.02237626 279.31443024 -0.01316321 C280.80434671 -0.01220756 282.2942632 -0.01126445 283.78417969 -0.01033401 C284.88379194 -0.00963978 284.88379194 -0.00963978 286.00561857 -0.00893151 C291.17254085 -0.00634081 296.33943044 -0.01071433 301.50634766 -0.01777267 C308.46010335 -0.02706311 315.41369216 -0.02045233 322.36743164 -0.0030899 C324.92284878 0.0008843 327.4782797 -0.00027497 330.03369141 -0.0068779 C333.51540617 -0.01504633 336.99659072 -0.00482811 340.47827148 0.01016235 C341.49528893 0.00347019 342.51230637 -0.00322198 343.56014252 -0.01011693 C352.24766137 0.06269275 352.24766137 0.06269275 356.14428711 3.39111328 C360.0237325 7.5703249 360.15596227 11.87508351 360.14428711 17.39111328 C359.73981862 20.74592635 358.97113849 23.94529746 358.11816406 27.21191406 C357.77689232 28.59934311 357.77689232 28.59934311 357.4287262 30.01480103 C356.67939019 33.04294055 355.9066188 36.06451791 355.13256836 39.08642578 C354.60146654 41.20501934 354.07155304 43.32391112 353.54277039 45.44308472 C352.43395148 49.87194336 351.31405231 54.2977973 350.18554688 58.72167969 C348.74329936 64.37729288 347.32395489 70.03833978 345.9122591 75.7016468 C344.82065868 80.07365738 343.71944807 84.44320088 342.61510277 88.8120079 C342.08849125 90.89810596 341.56424988 92.98480387 341.04247475 95.07211685 C340.31011499 97.99357718 339.56547431 100.91163561 338.81738281 103.82910156 C338.49997131 105.10889893 338.49997131 105.10889893 338.17614746 106.41455078 C334.71793013 119.73039231 334.71793013 119.73039231 329.50695324 123.0929327 C325.61651742 124.59486243 322.2379366 124.8010349 318.13369751 124.75187683 C316.94994461 124.75572174 316.94994461 124.75572174 315.7422775 124.75964433 C313.10735304 124.76457171 310.47300612 124.74810682 307.83813477 124.73168945 C305.94564833 124.73084295 304.05316091 124.73131877 302.16067505 124.73301697 C297.02887614 124.73387745 291.89728774 124.71624296 286.76553774 124.6952951 C281.40037383 124.67653725 276.03520507 124.67477855 270.67001343 124.67121887 C260.5128673 124.6618958 250.35581808 124.63727841 240.19871461 124.6071704 C228.63411749 124.57363461 217.06951574 124.55714244 205.5048821 124.5420841 C181.71796338 124.51072913 157.93113068 124.45796347 134.14428711 124.39111328 C134.45743866 125.83662567 134.45743866 125.83662567 134.7769165 127.31134033 C135.18547882 129.20562775 135.18547882 129.20562775 135.60229492 131.13818359 C136.00825897 133.01682098 136.00825897 133.01682098 136.42242432 134.93341064 C144.16137297 172.00275874 134.42095756 215.3432768 113.87866211 246.97314453 C111.72114994 250.17725226 109.44915465 253.2913188 107.14428711 256.39111328 C106.58225586 257.16583984 106.02022461 257.94056641 105.44116211 258.73876953 C98.18870881 268.43804566 89.68523918 277.90513551 80.14428711 285.39111328 C79.64654785 285.78476074 79.14880859 286.1784082 78.63598633 286.58398438 C57.04681578 303.500825 33.01975378 314.12638222 6.14428711 319.39111328 C4.30930664 319.76042969 4.30930664 319.76042969 2.43725586 320.13720703 C-38.58934411 326.93590074 -81.84629707 315.97909406 -115.58764648 292.16894531 C-152.68744423 265.51253112 -174.44287694 227.09429894 -181.85571289 182.39111328 C-186.44431646 151.14114067 -180.73665604 118.6071518 -166.85571289 90.39111328 C-166.54907715 89.76011719 -166.24244141 89.12912109 -165.92651367 88.47900391 C-159.58187936 75.57265604 -151.69423744 64.08702313 -141.87524414 53.56298828 C-140.10487151 51.65906723 -138.44185521 49.71220177 -136.79321289 47.70361328 C-112.86777106 19.83370671 -73.2146592 4.22521438 -37.53048706 0.66165161 C-25.05653709 -0.25668553 -12.49982156 -0.04992855 0 0 Z M-87.32446289 103.41845703 C-104.31701549 123.3742171 -109.50779107 146.68094595 -107.85571289 172.39111328 C-105.86274595 191.59645707 -96.34167104 208.88256558 -82.85571289 222.39111328 C-82.09645508 223.16197266 -81.33719727 223.93283203 -80.55493164 224.72705078 C-62.83182215 241.72499212 -40.20386597 247.20425265 -16.26586914 246.75830078 C6.7817153 245.79442434 26.60958379 234.57796221 42.33178711 218.14111328 C59.4546784 198.57597125 64.25944855 176.74944013 63.34399414 151.38867188 C62.01156485 131.38920138 51.94991963 113.44817289 38.14428711 99.39111328 C37.40694336 98.62927734 36.66959961 97.86744141 35.90991211 97.08251953 C18.32055424 80.05389622 -4.05860157 74.80949619 -27.90649414 75.11376953 C-51.01298908 75.85462222 -71.54487528 86.91950586 -87.32446289 103.41845703 Z " fill="#2F6AC2" transform="translate(243.855712890625,137.60888671875)"/>
<path d="M0 0 C-0.27083333 1.35416667 -0.54166667 2.70833333 -0.8125 4.0625 C-0.99296875 4.97 -1.1734375 5.8775 -1.359375 6.8125 C-1.82027496 9.10575836 -2.29010264 11.39722902 -2.765625 13.6875 C-3.02859375 14.96625 -3.2915625 16.245 -3.5625 17.5625 C-3.81128906 18.76003906 -4.06007813 19.95757812 -4.31640625 21.19140625 C-5.97208237 30.4158875 -6.23916842 39.51018498 -6.25 48.875 C-6.25200912 49.90229721 -6.25200912 49.90229721 -6.25405884 50.9503479 C-6.24782204 65.69219275 -4.49003303 79.52829101 -0.55078125 93.75 C0 96 0 96 0 99 C-10.20737854 98.65975405 -19.83406923 94.33654817 -27 87 C-33.38627995 78.80033191 -36.47647426 71.13525116 -36.3984375 60.78515625 C-36.40130768 59.9299791 -36.40417786 59.07480194 -36.40713501 58.19371033 C-36.40916439 56.39614189 -36.40371389 54.59855081 -36.39111328 52.80102539 C-36.37506308 50.07321991 -36.39098994 47.3469003 -36.41015625 44.61914062 C-36.40817323 42.86197594 -36.40432834 41.10481218 -36.3984375 39.34765625 C-36.40451019 38.54425308 -36.41058289 37.74084991 -36.4168396 36.9131012 C-36.28535034 26.1463154 -32.11522163 17.98142252 -25 10 C-17.82964429 3.93656026 -9.46115964 0 0 0 Z " fill="#356FC4" transform="translate(43,249)"/>
<path d="M0 0 C3.96730289 2.97059132 5.27107746 6.43842781 6.0859375 11.125 C6.36246056 14.91874119 6.36642776 18.69745189 6.3515625 22.5 C6.35347595 23.5832959 6.3553894 24.6665918 6.35736084 25.78271484 C6.35871745 28.06543206 6.35505776 30.34815713 6.34667969 32.63085938 C6.33597298 36.1134585 6.34659307 39.59554181 6.359375 43.078125 C6.35805331 45.30208447 6.35549073 47.52604361 6.3515625 49.75 C6.35561096 50.78560059 6.35965942 51.82120117 6.36383057 52.88818359 C6.31904314 59.83552948 6.26145194 65.56877053 1.5859375 71.0625 C-1.92587341 73.676944 -5.31131908 73.72001389 -9.578125 73.4765625 C-12.73179323 73.00193016 -14.54350067 72.28005621 -16.9140625 70.125 C-20.88895146 64.34229689 -20.36455394 58.28127471 -20.34765625 51.53515625 C-20.3528981 50.31726913 -20.35813995 49.09938202 -20.36354065 47.84458923 C-20.36995353 45.27343507 -20.36863341 42.70225154 -20.36010742 40.13110352 C-20.35159979 36.20470761 -20.38036866 32.27976785 -20.41210938 28.35351562 C-20.41372161 25.85156293 -20.41314344 23.34960768 -20.41015625 20.84765625 C-20.42139023 19.67767593 -20.43262421 18.50769562 -20.44419861 17.30226135 C-20.38793409 10.69714511 -19.91516736 6.47039759 -15.9140625 1.125 C-11.55557849 -2.03446331 -4.85114429 -2.21766596 0 0 Z " fill="#3871C5" transform="translate(314.9140625,15.875)"/>
<path d="M0 0 C0.84046875 -0.04898437 1.6809375 -0.09796875 2.546875 -0.1484375 C6.31981188 0.5821601 8.6467065 2.67305298 11.25 5.375 C12.64926255 7.71154914 13.7838406 9.83546671 14.87109375 12.30078125 C15.17894302 12.96603317 15.4867923 13.6312851 15.80397034 14.31669617 C16.77949387 16.4340662 17.73360005 18.56031523 18.6875 20.6875 C19.32220534 22.0715891 19.9582643 23.4550583 20.59570312 24.83789062 C22.18521002 28.29866814 23.7476979 31.77080427 25.29882812 35.24893188 C26.27792264 37.43741293 27.268612 39.62042451 28.25976562 41.8034668 C28.9015692 43.23332453 29.54286325 44.6634111 30.18359375 46.09375 C30.48301376 46.74882034 30.78243378 47.40389069 31.09092712 48.07881165 C33.3779428 53.23225605 34.16119711 56.81669763 33.25 62.375 C31.52128428 66.56031174 29.41960522 68.61450002 25.25 70.375 C18.93075796 71.077138 16.39352245 70.37884041 11.25 66.375 C9.73797495 63.94850162 8.53982894 61.7569145 7.375 59.1796875 C7.04185791 58.4780246 6.70871582 57.77636169 6.36547852 57.05343628 C5.66555221 55.57532403 4.97269858 54.09384389 4.28662109 52.60925293 C3.28082289 50.44143328 2.24923709 48.28821334 1.20703125 46.13769531 C-0.48149595 42.64570806 -2.13135102 39.13742256 -3.76220703 35.61816406 C-4.42741843 34.19172458 -5.10044096 32.76890479 -5.78076172 31.34960938 C-13.60434368 15.01114558 -13.60434368 15.01114558 -11.75 7.375 C-8.89071545 2.27082806 -5.74376823 0.22626966 0 0 Z " fill="#3670C5" transform="translate(244.75,28.625)"/>
<path d="M0 0 C3.4794963 1.36154203 4.70766749 2.59073448 6.875 5.625 C9.55072275 13.65216825 6.28210955 20.23893114 2.74633789 27.42919922 C2.17004639 28.56631348 1.59375488 29.70342773 1 30.875 C0.10629129 32.66930321 -0.78350239 34.46551614 -1.67332458 36.26174927 C-2.55939083 38.04835458 -3.44984484 39.83278158 -4.34033203 41.6171875 C-5.83355585 44.66074579 -7.26190304 47.72094791 -8.65234375 50.8125 C-9.04357422 51.67633301 -9.43480469 52.54016602 -9.83789062 53.43017578 C-10.54704349 55.00687578 -11.24578306 56.58832098 -11.93164062 58.17529297 C-14.18304106 63.11410448 -16.47398208 65.93741421 -21 69 C-25.19734271 70.24222827 -28.45833086 69.26572448 -32.3125 67.375 C-35.99064439 64.12454682 -37.74481119 61.24327812 -38.30322266 56.33447266 C-37.89635776 51.86026911 -36.23925021 48.52207385 -34.2734375 44.5234375 C-33.88813873 43.71693756 -33.50283997 42.91043762 -33.10586548 42.07949829 C-31.87306335 39.50596599 -30.62425435 36.94057953 -29.375 34.375 C-28.55754923 32.67367856 -27.74113281 30.97185972 -26.92578125 29.26953125 C-25.35140458 25.98787443 -23.76352023 22.71335983 -22.16308594 19.44433594 C-20.82773707 16.71613654 -19.51991818 13.97940081 -18.25097656 11.21972656 C-17.74791992 10.14948242 -17.24486328 9.07923828 -16.7265625 7.9765625 C-16.31229004 7.07244629 -15.89801758 6.16833008 -15.47119141 5.23681641 C-11.7074635 -0.48559898 -6.25445509 -0.81876503 0 0 Z " fill="#3770C5" transform="translate(374,30)"/>
</svg>
